<?xml version="1.0" encoding="UTF-8"?>
<svg viewBox="0 0 199 98" version="1.1" xmlns="http://www.w3.org/2000/svg" xmlns:xlink="http://www.w3.org/1999/xlink" data-ember-extension="1">
    <title>ee_logo_dark</title>
    <g id="Page-1" stroke="none" stroke-width="1" fill="none" fill-rule="evenodd">
        <g id="Tablet" transform="translate(-399.000000, -132.000000)" fill="#000000">
            <g id="logo" transform="translate(399.000000, 132.000000)">
                <path d="M21.2755525,57.7200008 L7.7721517,57.7200008 L7.7721517,66.8999643 L23.619893,66.8999643 L23.619893,72.5727109 L0.739130435,72.5727109 L0.739130435,38.3008474 L23.5730062,38.3008474 L23.5730062,44.0206708 L7.7721517,44.0206708 L7.7721517,52.1884844 L21.2755525,52.1884844 L21.2755525,57.7200008 Z M40.3584836,64.0753601 L59.9350285,0 L67.7651255,0 L44.039098,72.5727109 L36.7013125,72.5727109 L24.8623934,38.3008474 L32.669047,38.3008474 L40.3584836,64.0753601 Z M79.6730725,57.7200008 L66.1696716,57.7200008 L66.1696716,66.8999643 L82.0174129,66.8999643 L82.0174129,72.5727109 L59.1366504,72.5727109 L59.1366504,38.3008474 L81.9705261,38.3008474 L81.9705261,44.0206708 L66.1696716,44.0206708 L66.1696716,52.1884844 L79.6730725,52.1884844 L79.6730725,57.7200008 Z M98.7794469,60.0267609 L93.1764733,60.0267609 L93.1764733,72.5727109 L86.143452,72.5727109 L86.143452,38.3008474 L98.8263337,38.3008474 C102.858619,38.3008474 105.968747,39.2031425 108.156809,41.0077597 C110.344871,42.8123769 111.438885,45.3623413 111.438885,48.6577292 C111.438885,50.9958855 110.934857,52.9456274 109.926786,54.5070136 C108.918714,56.0683998 107.391001,57.3119978 105.3436,58.2378449 L112.728272,72.2431738 L112.728272,72.5727109 L105.179496,72.5727109 L98.7794469,60.0267609 Z M93.1764733,54.3069375 L98.8497771,54.3069375 C100.615856,54.3069375 101.983374,53.85579 102.952373,52.9534814 C103.921372,52.0511728 104.405864,50.8075748 104.405864,49.2226501 C104.405864,47.6063407 103.948722,46.3352816 103.034425,45.4094345 C102.120127,44.4835874 100.717444,44.0206708 98.8263337,44.0206708 L93.1764733,44.0206708 L93.1764733,54.3069375 Z M137.320403,57.7200008 L123.817003,57.7200008 L123.817003,66.8999643 L139.664744,66.8999643 L139.664744,72.5727109 L116.783981,72.5727109 L116.783981,38.3008474 L139.617857,38.3008474 L139.617857,44.0206708 L123.817003,44.0206708 L123.817003,52.1884844 L137.320403,52.1884844 L137.320403,57.7200008 Z M161.490553,63.5810544 C161.490553,62.2472069 161.02169,61.2232981 160.083949,60.5092974 C159.146208,59.7952967 157.4583,59.0420765 155.020174,58.2496141 C152.582047,57.4571518 150.651893,56.6764704 149.229653,55.9075465 C145.353657,53.8047752 143.415689,50.9723532 143.415689,47.4101958 C143.415689,45.5585016 143.935346,43.9069093 144.974675,42.4553693 C146.014004,41.0038294 147.506553,39.870076 149.452365,39.0540752 C151.398177,38.2380744 153.582299,37.8300801 156.004797,37.8300801 C158.442923,37.8300801 160.615323,38.2733816 162.522063,39.1599979 C164.428803,40.0466141 165.90963,41.2980582 166.964588,42.9143675 C168.019547,44.5306768 168.547018,46.3666512 168.547018,48.4223456 L161.513997,48.4223456 C161.513997,46.8531132 161.02169,45.6330533 160.037062,44.7621294 C159.052434,43.8912054 157.669287,43.45575 155.88758,43.45575 C154.168388,43.45575 152.832127,43.820591 151.878757,44.5502841 C150.925388,45.2799771 150.44871,46.2411175 150.44871,47.4337341 C150.44871,48.5478891 151.007439,49.4815684 152.124913,50.2347999 C153.242388,50.9880314 154.887317,51.6941754 157.05975,52.353253 C161.060777,53.5615619 163.975545,55.0601563 165.80414,56.8490812 C167.632734,58.6380061 168.547018,60.8662827 168.547018,63.5339777 C168.547018,66.4998268 167.42956,68.8261789 165.194611,70.5131037 C162.959662,72.2000285 159.951122,73.0434783 156.1689,73.0434783 C153.543226,73.0434783 151.152023,72.5609465 148.995219,71.5958686 C146.838415,70.6307907 145.193486,69.3087323 144.060382,67.6296537 C142.927279,65.950575 142.360735,64.0047561 142.360735,61.7921385 L149.4172,61.7921385 C149.4172,65.5739885 151.667744,67.4648851 156.1689,67.4648851 C157.841205,67.4648851 159.146208,67.1235822 160.083949,66.4409661 C161.02169,65.75835 161.490553,64.8050557 161.490553,63.5810544 Z M199,44.0206708 L188.544242,44.0206708 L188.544242,72.5727109 L181.51122,72.5727109 L181.51122,44.0206708 L171.196123,44.0206708 L171.196123,38.3008474 L199,38.3008474 L199,44.0206708 Z" id="EVEREST"/>
                <polygon id="Path" points="9.10869565 90.533288 2.67866848 90.533288 2.67866848 95.7914402 10.1480978 95.7914402 10.1480978 97.3913043 0.722146739 97.3913043 0.722146739 82.5543478 10.0461957 82.5543478 10.0461957 84.1644022 2.67866848 84.1644022 2.67866848 88.9334239 9.10869565 88.9334239"/>
                <polygon id="Path" points="45.1141304 90.8389946 38.8879076 90.8389946 38.8879076 97.3913043 36.9313859 97.3913043 36.9313859 82.5543478 46.122962 82.5543478 46.122962 84.1644022 38.8879076 84.1644022 38.8879076 89.2391304 45.1141304 89.2391304"/>
                <polygon id="Path" points="80.9972826 90.8389946 74.7710598 90.8389946 74.7710598 97.3913043 72.814538 97.3913043 72.814538 82.5543478 82.0061141 82.5543478 82.0061141 84.1644022 74.7710598 84.1644022 74.7710598 89.2391304 80.9972826 89.2391304"/>
                <polygon id="Path" points="117.084239 90.533288 110.654212 90.533288 110.654212 95.7914402 118.123641 95.7914402 118.123641 97.3913043 108.69769 97.3913043 108.69769 82.5543478 118.021739 82.5543478 118.021739 84.1644022 110.654212 84.1644022 110.654212 88.9334239 117.084239 88.9334239"/>
                <path d="M155.820652,92.6834239 C155.637227,94.2527252 155.058089,95.4636506 154.08322,96.3162364 C153.108351,97.1688222 151.812508,97.5951087 150.195652,97.5951087 C148.442926,97.5951087 147.038388,96.9667182 145.981997,95.7099185 C144.925606,94.4531187 144.397418,92.7717497 144.397418,90.6657609 L144.397418,89.2391304 C144.397418,87.8600475 144.64368,86.6474237 145.136209,85.6012228 C145.628739,84.5550219 146.326762,83.7517012 147.230299,83.1912364 C148.133836,82.6307717 149.180021,82.3505435 150.368886,82.3505435 C151.944981,82.3505435 153.208555,82.7904168 154.159647,83.6701766 C155.110738,84.5499365 155.664401,85.7676553 155.820652,87.3233696 L153.85394,87.3233696 C153.684102,86.1412984 153.31556,85.2853287 152.748302,84.7554348 C152.181043,84.2255408 151.387913,83.9605978 150.368886,83.9605978 C149.11888,83.9605978 148.13893,84.4225497 147.429008,85.3464674 C146.719086,86.2703851 146.36413,87.58491 146.36413,89.2900815 L146.36413,90.7269022 C146.36413,92.3369646 146.700404,93.6175224 147.372962,94.5686141 C148.04552,95.5197058 148.986407,95.9952446 150.195652,95.9952446 C151.282614,95.9952446 152.116505,95.7489834 152.697351,95.2564538 C153.278196,94.7639242 153.663722,93.9062561 153.85394,92.6834239 L155.820652,92.6834239 Z" id="Path"/>
                <polygon id="Path" points="192.794158 84.1644022 188.025136 84.1644022 188.025136 97.3913043 186.078804 97.3913043 186.078804 84.1644022 181.319973 84.1644022 181.319973 82.5543478 192.794158 82.5543478"/>
                <polygon id="Path-2" points="59.8695652 0 73.4113231 31.3043478 80.7391304 31.3043478 67.1344784 0"/>
                <polygon id="Path-2" points="82.4782609 12.173913 92.3754426 31.3043478 99.8695652 31.3043478 89.9080618 12.173913"/>
                <polygon id="Path-2" transform="translate(82.478261, 18.260870) scale(-1, 1) translate(-82.478261, -18.260870) " points="77.2608696 12.173913 84.4473812 24.3478261 87.6956522 17.5844891 84.4473812 12.173913"/>
            </g>
        </g>
    </g>
</svg>